PathFileType	4	(X/Y/Z)	Kaydara	
DataRate	CameraRate	NumFrames	NumMarkers	Units	OrigDataRate	OrigDataStartFrame	OrigNumFrames	
240.00	240.00	4	72	mm	240.00	1	355	
Frame#	Time	Hips			RightUpLeg			RightLeg			RightFoot			RightFoot_End			LeftUpLeg			LeftLeg			LeftFoot			LeftFoot_End			Spine			Spine1			Spine2			Spine3			Neck			Head			Head_End			RightShoulder			RightArm			RightForeArm			RightHand			RightHandThumb1			RightHandThumb2			RightHandThumb3			RightHandThumb3_End			RightInHandIndex			RightHandIndex1			RightHandIndex2			RightHandIndex3			RightHandIndex3_End			RightInHandMiddle			RightHandMiddle1			RightHandMiddle2			RightHandMiddle3			RightHandMiddle3_End			RightInHandRing			RightHandRing1			RightHandRing2			RightHandRing3			RightHandRing3_End			RightInHandPinky			RightHandPinky1			RightHandPinky2			RightHandPinky3			RightHandPinky3_End			LeftShoulder			LeftArm			LeftForeArm			LeftHand			LeftHandThumb1			LeftHandThumb2			LeftHandThumb3			LeftHandThumb3_End			LeftInHandIndex			LeftHandIndex1			LeftHandIndex2			LeftHandIndex3			LeftHandIndex3_End			LeftInHandMiddle			LeftHandMiddle1			LeftHandMiddle2			LeftHandMiddle3			LeftHandMiddle3_End			LeftInHandRing			LeftHandRing1			LeftHandRing2			LeftHandRing3			LeftHandRing3_End			LeftInHandPinky			LeftHandPinky1			LeftHandPinky2			LeftHandPinky3			LeftHandPinky3_End			
		X1	Y1	Z1	X2	Y2	Z2	X3	Y3	Z3	X4	Y4	Z4	X5	Y5	Z5	X6	Y6	Z6	X7	Y7	Z7	X8	Y8	Z8	X9	Y9	Z9	X10	Y10	Z10	X11	Y11	Z11	X12	Y12	Z12	X13	Y13	Z13	X14	Y14	Z14	X15	Y15	Z15	X16	Y16	Z16	X17	Y17	Z17	X18	Y18	Z18	X19	Y19	Z19	X20	Y20	Z20	X21	Y21	Z21	X22	Y22	Z22	X23	Y23	Z23	X24	Y24	Z24	X25	Y25	Z25	X26	Y26	Z26	X27	Y27	Z27	X28	Y28	Z28	X29	Y29	Z29	X30	Y30	Z30	X31	Y31	Z31	X32	Y32	Z32	X33	Y33	Z33	X34	Y34	Z34	X35	Y35	Z35	X36	Y36	Z36	X37	Y37	Z37	X38	Y38	Z38	X39	Y39	Z39	X40	Y40	Z40	X41	Y41	Z41	X42	Y42	Z42	X43	Y43	Z43	X44	Y44	Z44	X45	Y45	Z45	X46	Y46	Z46	X47	Y47	Z47	X48	Y48	Z48	X49	Y49	Z49	X50	Y50	Z50	X51	Y51	Z51	X52	Y52	Z52	X53	Y53	Z53	X54	Y54	Z54	X55	Y55	Z55	X56	Y56	Z56	X57	Y57	Z57	X58	Y58	Z58	X59	Y59	Z59	X60	Y60	Z60	X61	Y61	Z61	X62	Y62	Z62	X63	Y63	Z63	X64	Y64	Z64	X65	Y65	Z65	X66	Y66	Z66	X67	Y67	Z67	X68	Y68	Z68	X69	Y69	Z69	X70	Y70	Z70	X71	Y71	Z71	X72	Y72	Z72	

1	0.0	5921.0129	906.651	56.2195	5998.550719405283	888.9685302974851	-6.628499884965201	5901.731220298672	492.39728840651964	-103.91821624900682	5888.8631224208075	104.47842832109805	-170.94843644650092	5814.175045672768	29.131333167924552	-11.929230555438398	5854.362501503444	896.681315662782	131.12511671781894	5785.113201552537	493.2624585695486	221.74439466707213	5732.570507722653	59.58153410904681	286.1216579588811	5598.359321697781	-14.96961307015603	171.47964088963246	5869.891065430172	1030.1032305890212	3.9048898657135203	5813.166350739539	1090.1944570593057	-47.23171856015634	5749.416900638798	1146.6224125163947	-102.02804416789026	5682.194580910134	1191.1343125264657	-156.79964475797556	5610.291787973017	1239.099638057476	-214.86224839646167	5543.85741995854	1282.7979520572037	-266.9304453646466	5427.498964970512	1379.915182995111	-317.5483842935635	5654.769297088518	1220.3821485580288	-221.96107908386193	5696.680836192288	1180.4443345952527	-342.867099944324	5650.113805564274	896.9784936548666	-338.76928008186803	5658.858028207103	663.6289616451008	-411.7974901699805	5640.35378697507	643.517729138844	-430.76475716580046	5610.981135577307	634.5139977322749	-433.35331574199995	5593.120100617609	627.33265328012	-433.09639991376184	5580.44929320423	620.5664183350726	-431.12029312962454	5649.662956685503	636.5729398536615	-426.4077057129613	5637.834600955046	599.7847278479455	-435.52802830990424	5620.480759223913	583.9769550820861	-435.00668570255743	5603.489268140122	583.121620492621	-431.88262351212865	5585.241562723064	588.4657901085477	-427.4081869614628	5656.6965262312915	635.8407010274783	-420.16206019210347	5648.9665675756705	599.5597210810662	-425.68143385307417	5630.985111018087	582.3452398233189	-424.25028677468777	5610.943777854385	581.3301056060826	-420.06743718408023	5591.200263422467	587.1857663969832	-414.9704353148028	5662.074815031236	636.1494336034673	-415.57486660848144	5660.129712493656	603.5726547602775	-416.7092683971456	5645.444149975677	588.6625875834012	-414.57121495031527	5626.63690810666	587.7334267565576	-410.0635283068455	5608.321437394139	593.2629337049874	-405.0469125061472	5667.771526180041	638.4589990866831	-409.5660306367972	5669.855489648042	609.6135093786078	-407.0999465423628	5659.6435736991925	597.9638445599759	-403.99296428278024	5646.67418882106	597.4262813887584	-400.030277294181	5630.88054133185	602.4051957671818	-395.1980376348048	5613.122232674849	1226.8416799796535	-167.60000794593637	5564.082113210012	1178.6802075058608	-45.565735356686666	5615.782088503407	960.0128681554284	-193.27958927241156	5713.630234429483	746.4472183214735	-332.68354347717377	5679.023976753926	728.7918018198094	-340.211817807622	5655.164814829171	702.995620702537	-374.7236437724105	5640.742391745835	683.5592892373114	-399.33740515688544	5630.5951844655065	666.0969189130329	-420.3527724100801	5682.764305259632	721.8789639867322	-340.5602942602431	5647.824935841689	678.9443998387451	-365.2321701747058	5628.56516001255	649.1555532337977	-395.3299987525187	5620.290528600062	635.2154354382668	-418.7516715407537	5615.936822207322	626.766285675521	-441.31472982158675	5690.185535697535	719.3743425890848	-341.8928418680506	5660.1194273629435	676.1424872538698	-366.6741367697242	5640.202038272639	643.4458264965725	-399.62879918134917	5630.746322353425	626.5358985273223	-427.93991711244774	5626.238931226303	617.2464301949956	-452.65411593547526	5696.276288101231	718.6813800856625	-342.0821213223102	5674.489712360551	679.2796584325415	-364.09678563088926	5658.300655453086	650.6541424417042	-392.89691914633	5649.801749942421	634.2757523052965	-420.2459929257291	5645.858373031826	625.5093666764953	-443.5028827815013	5704.6545899190905	719.2768093490247	-342.55112975439147	5689.678536271257	683.4270004308294	-362.62864823210026	5678.637193177666	660.4786090856513	-385.7153269198741	5673.3679115608675	648.519499861928	-405.6757565988855	5670.409864440557	640.7466308926712	-426.28442592452706
2	0.004	5921.0129	906.651	56.2195	5998.442390293988	888.8843669014891	-6.719883914120243	5901.626261655389	492.2894679177084	-103.89338220873286	5888.929143264148	104.4056181542081	-170.99686198764786	5814.239352165168	29.05685778110422	-11.97881319564347	5854.458229733719	896.7627148780366	131.21926622907034	5785.156639848324	493.35002693901026	221.81963648417943	5732.582737479771	59.64732142251893	286.13260020107873	5598.398339701206	-14.935317688210938	171.48398044883697	5869.9495957556	1030.1182095430622	3.8958010792324322	5813.249173112537	1090.235316814211	-47.24004206217086	5749.514118033639	1146.687769269525	-102.03354273663918	5682.290211646177	1191.2224163196388	-156.79537101334802	5610.385040001346	1239.2103187494736	-214.84724595669172	5543.948915940048	1282.9300733395648	-266.90400646951014	5427.576833365212	1380.0529119758753	-317.48604602726857	5654.822281631619	1220.416056907884	-221.9886921710943	5696.467061870616	1180.159796951508	-342.94553493400815	5649.4858546256	896.671089639967	-338.68990510605295	5657.034920626696	663.2243846044545	-410.95235312606366	5638.4145941728	643.0423611189312	-429.88417869582145	5608.851747261438	633.9480851274977	-432.4228624203083	5590.842741474496	626.7119036481487	-432.12693907635844	5578.035301443804	619.906983841334	-430.1146565914669	5647.657385301652	636.1242204029578	-425.50784871305746	5635.493033535223	599.2830731931703	-434.5317339686534	5617.905894504523	583.4187872308946	-433.9470375300046	5600.808362995299	582.5149316162295	-430.79661578837545	5582.499194909099	587.8099106547384	-426.3091489532645	5654.660466223015	635.4152409878201	-419.2541119561916	5646.586295628194	599.0952163066768	-424.67504591272996	5628.347332911896	581.8222840844186	-423.17401709553883	5608.176658849055	580.7501543996161	-418.9590058241943	5588.3652091784525	586.5527419929456	-413.84757145350727	5660.025615302	635.7420001763712	-414.6635775544785	5657.760115897958	603.146588678622	-415.7066081856816	5642.847657240819	588.1889215388638	-413.5070349020656	5623.914353331837	587.2065609649176	-408.96800147868385	5605.534389184005	592.6870077853682	-403.93766192959976	5665.718283971157	638.0719618489463	-408.65435690221443	5667.5051981792185	609.222754718854	-406.10391311550507	5657.10916400722	597.5402733829496	-402.9471145610538	5644.046654363485	596.9664697562652	-398.961295329635	5628.195200225923	601.9034002449964	-394.11674458527955	5613.261295070633	1227.0172341942102	-167.5493938752923	5564.334275738189	1179.1576483255717	-45.263389278864395	5615.684128367532	959.9585996890161	-192.61768180082544	5712.848347298959	745.7877113854514	-331.8707668781704	5678.1669972051795	728.0982703672087	-339.4145368698173	5654.303004419255	702.3907706113446	-373.8594003963476	5639.891944374576	683.0102301812	-398.4039279964977	5629.766808748797	665.5892660738177	-419.3422433247745	5681.949944393945	721.1455780463752	-339.68403403887	5647.029798220038	678.1424330020113	-364.1723808143866	5627.8009461909605	648.3878207461146	-394.1391899275381	5619.541682930916	634.5241564239752	-417.5102477020392	5615.198095153979	626.175500942325	-440.05221444583447	5689.4113954734385	718.6310109404412	-340.9613411465703	5659.38578726421	675.326860861321	-365.53374858202005	5639.507408819144	642.6665690353669	-398.3387449296651	5630.072761285573	625.8484055954224	-426.5855839168599	5625.5776702758185	616.6686660643045	-451.27514229017135	5695.529995192221	717.9318869700602	-341.11612578430714	5673.80366064823	678.457437326115	-362.9132001593266	5657.65392559491	649.8627350899792	-391.57636942572344	5649.17816749936	633.5723889389403	-418.8599812827751	5645.2476945882245	624.9089532435983	-442.09206357451325	5703.940450537653	718.5291723702628	-341.55188165705	5689.039216633682	682.6108107394131	-361.4087627492592	5678.037398646542	659.6860359539472	-384.3765516540205	5672.788889034826	647.7906346521345	-404.28477605229943	5669.844510415903	640.1086680840158	-424.86890481293455
3	0.008	5921.0129	906.651	56.2195	5998.333442557788	888.7989902243946	-6.809472835622296	5901.527495027708	492.1774241539458	-103.85879444086595	5889.000709413046	104.33075411268426	-171.04035389536392	5814.3087500814645	28.980109484571038	-12.023786766591858	5854.553081541769	896.8448544410278	131.31170283181257	5785.195871777632	493.43850389157154	221.89097857944722	5732.600974085152	59.714265650154005	286.1520447886566	5598.443628411759	-14.899626641407593	171.49653911392068	5870.01480794643	1030.135355493535	3.886286760912162	5813.345687586367	1090.283617420197	-47.24979497335436	5749.631703168552	1146.7659059818895	-102.04231008990129	5682.411388607502	1191.3277288655026	-156.79714580181815	5610.509089220896	1239.3427765553165	-214.8410601323292	5544.075717731741	1283.088008151647	-266.8887246586026	5427.688278196212	1380.2145779226257	-317.4342703565206	5654.904944099832	1220.4700727533059	-222.02405149412905	5696.28176930107	1179.894530169498	-343.0373437331707	5648.895245171902	896.3859255615137	-338.60376707287514	5655.238651194089	662.8329914746032	-410.0551705974085	5636.503687987781	642.5726344531193	-428.9539763793836	5606.747362084329	633.3836596766167	-431.4438952805958	5588.58740953814	626.0905684688131	-431.10864552646444	5575.640266302051	619.2459376118619	-429.05898738609534	5645.678026391772	635.6832002638024	-424.5544623090721	5633.173022339564	598.7846034688312	-433.47651706070866	5615.3479357759425	582.8616804465196	-432.8258541290046	5598.1416216817	581.9082241186759	-429.6493824897194	5579.76882167745	587.1532812946249	-425.1504461818173	5652.648838920782	634.9999167978262	-418.28990639312076	5644.224952543574	598.6377618319541	-423.60566445678086	5625.723187842972	581.3043984924215	-422.031561940747	5605.419758283005	580.1741326510964	-417.78459893424457	5585.537948153138	585.9229256050596	-412.66036032106484	5657.9997185770635	635.3465333477395	-413.6942217299922	5655.407935092814	602.7312959720397	-414.63821560185494	5640.263746620827	587.7246527563545	-412.37400262999336	5621.2009713490415	586.6881779107506	-407.8036455866171	5602.754178631888	592.1189742951192	-402.7610282775174	5663.687107631187	637.6991782691932	-407.6828430686894	5665.1708384853955	608.8465481068156	-405.0398473417133	5654.586501252914	597.1306992899702	-401.83024091453325	5641.428228076411	596.5202546690614	-397.82106769687016	5625.516811270024	601.4148317366385	-392.9653494446511	5613.428789551187	1227.2131782668728	-167.5067971457393	5564.604466985851	1179.661119661133	-44.968831409786	5615.631839444029	959.9265018201221	-191.9358652333288	5712.1331159511965	745.1402564456719	-331.00738710405034	5677.375985612725	727.4126144451586	-338.57698936224915	5653.513848760139	701.7968313501913	-372.96153441582567	5639.119600404262	682.4745537493146	-397.4407452287205	5629.02175623857	665.0973627500781	-418.3046667976575	5681.203843246286	720.4202807932022	-338.7662233882856	5646.3104058840745	677.3468013293246	-363.08089016227996	5627.120272711646	647.6288728806268	-392.92186496959494	5618.881417182041	633.8450436293554	-416.2444292833359	5614.552249728426	625.6009351674381	-438.7663171247268	5688.707531338682	717.896977164858	-339.98593716039323	5658.730814374709	674.519475005085	-364.35779150684067	5638.900197536355	641.8983947816043	-397.0184353482424	5629.492816025248	625.1761571362955	-425.20338965531715	5625.014789138409	616.1106204580645	-449.8693352204273	5694.855192332322	717.1925554897575	-340.1043276330989	5673.197615591309	677.6450768925661	-361.6896743047109	5657.095067176797	649.0838417208108	-390.22014524820986	5648.648560689543	632.8856467008982	-417.4404105952216	5644.735530886868	624.3294118784116	-440.64855961061676	5703.299137815398	717.79302121847	-340.5042441301587	5688.481295738319	681.8065282683776	-360.14432092002687	5677.525634078187	658.9077702951822	-382.99604032142753	5672.302510172006	647.0792059898739	-402.85331425891826	5669.375913782464	639.4919841801833	-423.41351108840763
4	0.013	5921.0129	906.651	56.2195	5998.223910812033	888.7124832419221	-6.89720150578421	5901.435148439582	492.06124012479114	-103.81456200880048	5889.077873705735	104.25390254848591	-171.07895016661834	5814.383298176494	28.901151002397143	-12.064188639831867	5854.647042208151	896.9276539530059	131.4023491989987	5785.231181744675	493.52777012676563	221.9583955095259	5732.625344081599	59.78227932684709	286.17977170338156	5598.495313264752	-14.862626481876756	171.5170976067685	5870.086612977873	1030.154654443824	3.876399155925397	5813.455748886284	1090.3393157056416	-47.26087863985614	5749.769460693219	1146.856746486922	-102.05420008738365	5682.5578844582915	1191.4501357526872	-156.80478443079537	5610.663676096296	1239.496858239158	-214.84346789323374	5544.237537530914	1283.2715671251642	-266.88434606582075	5427.8330215169735	1380.3999830329653	-317.39283758295943	5655.017061599686	1220.5441282903055	-222.06690014964855	5696.125060013665	1179.6488878855248	-343.14211787341424	5648.342492940458	896.1233211021971	-338.51072746503667	5653.47117336244	662.4549946036037	-409.1065873811954	5634.623212474762	642.108845236089	-427.97470908481773	5604.670445435455	632.8210435271515	-430.41698744534494	5586.35680841397	625.4689722548029	-430.0421260842461	5573.267102325595	618.5835926338076	-427.95394076131834	5643.727088520571	635.2501284324703	-423.5481793971318	5630.877239874336	598.2895574613825	-432.3630947645367	5612.809903685513	582.3058569164485	-431.64392896635576	5595.492247403305	581.301718301932	-428.4417482882402	5577.0537744789635	586.4961264584512	-423.9329182044717	5650.663877211789	634.5949344449996	-417.2701389576731	5641.88523687262	598.1875304247303	-422.4741009794631	5623.11575598972	580.7917320490895	-420.82382405303173	5602.676377414889	579.6021843742195	-416.54516074529914	5582.721922335077	585.2964644447931	-411.4097643029763	5655.999363018407	634.963208970642	-412.667536629585	5653.075829942044	602.3268965380804	-413.50496860827633	5637.695411648687	587.2698746926047	-411.1730836266214	5618.499969493618	586.1783631985036	-406.57147038895704	5599.984145656856	591.558920404594	-401.5180403901776	5661.680228512734	637.3407898343168	-406.6522726969525	5662.8550244177495	608.484958488008	-403.9086900217033	5652.078466263772	596.7351613636079	-400.6433660985377	5638.821946632267	596.0876652791036	-396.6106551780116	5622.84852852436	600.9395183620514	-391.744933201242	5613.6244375947945	1227.429295974641	-167.47205496757744	5564.892365928836	1180.1900894320395	-44.68221240563613	5615.625116160727	959.9165729607836	-191.23448069412072	5711.484934694746	744.5054209706664	-330.0941542750685	5676.651542863973	726.7355005157553	-337.69982471200797	5652.797966601125	701.2144108972817	-372.0306062884036	5638.425958672842	681.9528226319335	-396.448380377825	5628.360581498635	664.6217299770396	-417.2405569711677	5680.526517191953	719.7037477417302	-337.807598151199	5645.667289432387	676.5582578860508	-361.95847930133266	5626.523619335565	646.8794295255741	-391.67880467814297	5618.310170960151	633.1787461785469	-414.9549555757086	5613.999686534631	625.0431450848772	-437.4577149129933	5688.074367231789	717.1728975341716	-338.96743073112214	5658.154898040447	673.7210512144432	-363.1471456477298	5638.380726105439	641.1419861622331	-395.6687586188339	5629.006753958804	624.5197488116825	-423.7941764557758	5624.550509680744	615.5727872693426	-448.4374707132072	5694.252238886585	716.4640272133662	-339.04757293872206	5672.67185071413	676.8432669670606	-360.4271659169949	5656.624282335746	648.3181150115855	-388.8292199467785	5648.213072687251	632.2160929430161	-415.9882142573153	5644.321979178804	623.7712134706322	-439.17324421891567	5702.730932980598	717.0689714115547	-339.4091101833118	5688.004929307819	681.0147996916905	-358.83634889255717	5677.101979040623	658.1444240129898	-381.5748441480962	5671.908802346257	646.3857611152991	-401.382399447009	5669.004055946749	638.8970395753763	-421.91922330135156
